<?xml version="1.0" encoding="UTF-8" standalone="no"?>
<!-- Created with Inkscape (http://www.inkscape.org/) -->

<svg
   width="512"
   height="512"
   viewBox="0 0 135.46667 135.46667"
   version="1.1"
   id="svg5"
   inkscape:version="1.1 (c68e22c387, 2021-05-23)"
   sodipodi:docname="palmside-left.svg"
   xmlns:inkscape="http://www.inkscape.org/namespaces/inkscape"
   xmlns:sodipodi="http://sodipodi.sourceforge.net/DTD/sodipodi-0.dtd"
   xmlns="http://www.w3.org/2000/svg"
   xmlns:svg="http://www.w3.org/2000/svg">
  <sodipodi:namedview
     id="namedview7"
     pagecolor="#ffffff"
     bordercolor="#666666"
     borderopacity="1.0"
     inkscape:pageshadow="2"
     inkscape:pageopacity="0.0"
     inkscape:pagecheckerboard="0"
     inkscape:document-units="px"
     showgrid="false"
     inkscape:zoom="1.6017536"
     inkscape:cx="408.92682"
     inkscape:cy="413.29703"
     inkscape:window-width="3840"
     inkscape:window-height="2066"
     inkscape:window-x="-11"
     inkscape:window-y="-11"
     inkscape:window-maximized="1"
     inkscape:current-layer="layer4"
     units="px" />
  <defs
     id="defs2" />
  <g
     inkscape:groupmode="layer"
     id="layer4"
     inkscape:label="palm side"
     style="display:inline">
    <path
       style="fill:#000000;fill-opacity:1;stroke:#000000;stroke-width:0.433166px;stroke-linecap:butt;stroke-linejoin:miter;stroke-opacity:1"
       d="m 21.287166,14.742178 c 16.361209,11.087737 29.603284,20.736161 30.955449,21.412229 1.352164,0.676084 2.569113,2.974763 16.766839,5.003014 14.19772,2.028236 20.823327,2.569108 27.448927,7.977762 6.625609,5.408672 8.789069,8.653861 18.118999,10.546884 9.32993,1.893022 16.22597,4.867801 10.14124,7.707325 -6.08475,2.839551 -19.7416,1.622597 -21.3642,0 -1.6226,-1.622586 -1.89303,-2.974754 -1.89303,-2.974754 0,0 2.29868,4.326923 2.70433,4.867792 0.40565,0.540856 8.92428,9.329932 12.03426,12.980778 3.10998,3.65083 7.97777,9.194715 10.41166,12.169494 2.4339,2.974748 6.93025,8.957088 6.65982,11.390998 -0.27043,2.43389 -1.98325,4.50315 -4.82279,3.69185 -2.83955,-0.81132 -6.8281,-5.16101 -10.04562,-8.32063 -3.3305,-3.270568 -8.28781,-7.438302 -9.77519,-8.655256 -1.48738,-1.21697 -5.27344,-6.084755 -7.57212,-8.24822 -2.298677,-2.163467 -3.855242,-3.853137 -5.074011,-4.747568 l -1.822025,-1.337172 c 0,0 3.515624,4.462144 6.760816,7.301693 3.2452,2.83955 7.43691,5.814297 11.35818,10.00603 3.92128,4.191692 5.40866,5.273443 8.92429,8.924293 3.51563,3.65083 8.05979,8.18821 9.27674,10.6071 1.01141,2.01034 -1.16376,7.10623 -6.16677,4.26669 -5.003,-2.83955 -13.60225,-9.82159 -14.41355,-10.49768 -0.8113,-0.67606 -6.27456,-3.97047 -8.16759,-5.86349 -1.893027,-1.89304 -6.896033,-6.760829 -10.817309,-10.141248 -3.921278,-3.38042 -5.273443,-4.326932 -5.273443,-4.326932 0,0 9.687776,9.447347 11.493396,11.087749 1.361253,1.236711 10.806296,7.510721 12.158456,9.133321 1.35217,1.62262 9.46597,6.52859 10.37488,8.99529 1.26455,3.43187 -0.29832,5.72541 -4.60158,4.57414 -5.15435,-1.37896 -7.98197,-4.41136 -10.6289,-5.96194 -4.749269,-2.78213 -6.326345,-4.97159 -8.219375,-6.05332 -1.893031,-1.08173 6.499185,5.09779 7.247085,6.23238 1.5216,2.30829 -0.67608,3.27798 -2.16346,3.00756 -1.487383,-0.27043 -6.647355,-3.18612 -11.430595,-4.98942 -2.986328,-1.85159 -6.455049,-3.57112 -9.370689,-5.40336 -4.353729,-2.73597 -7.425336,-5.76939 -8.718317,-6.6583 C 69.618507,100.95987 63.006741,99.224864 57.638606,95.206967 53.260438,91.930016 46.157879,84.561886 42.236601,78.477147 38.315327,72.392407 29.931906,61.575089 22.900656,56.436877 15.869406,51.298648 5.3225265,45.889993 3.5647165,44.537825 c -1.7578,-1.352168 -1.89303,-1.352168 -1.89303,-1.352168 z"
       id="path11352"
       sodipodi:nodetypes="csssssscssssssssscsssssssscsssssssscsssssscc" />
  </g>
  <style
     type="text/css"
     id="style859">
	.st0{fill:#4B4B4B;}
</style>
</svg>
