<?xml version="1.0" encoding="UTF-8" standalone="no"?>
<!-- Created with Inkscape (http://www.inkscape.org/) -->

<svg
   width="512"
   height="512"
   viewBox="0 0 135.46667 135.46667"
   version="1.1"
   id="svg5"
   inkscape:version="1.1 (c68e22c387, 2021-05-23)"
   sodipodi:docname="palmup-oncanvas.svg"
   xmlns:inkscape="http://www.inkscape.org/namespaces/inkscape"
   xmlns:sodipodi="http://sodipodi.sourceforge.net/DTD/sodipodi-0.dtd"
   xmlns="http://www.w3.org/2000/svg"
   xmlns:svg="http://www.w3.org/2000/svg">
  <sodipodi:namedview
     id="namedview7"
     pagecolor="#ffffff"
     bordercolor="#666666"
     borderopacity="1.0"
     inkscape:pageshadow="2"
     inkscape:pageopacity="0.0"
     inkscape:pagecheckerboard="0"
     inkscape:document-units="px"
     showgrid="false"
     inkscape:zoom="1.6017536"
     inkscape:cx="408.92682"
     inkscape:cy="413.29703"
     inkscape:window-width="3840"
     inkscape:window-height="2066"
     inkscape:window-x="-11"
     inkscape:window-y="-11"
     inkscape:window-maximized="1"
     inkscape:current-layer="layer1"
     units="px" />
  <defs
     id="defs2" />
  <g
     inkscape:label="palm up"
     inkscape:groupmode="layer"
     id="layer1"
     style="display:inline">
    <path
       id="path1282"
       style="fill:#fa8072;fill-opacity:0.60000002;stroke:#ff6347;stroke-width:9.99999999;stroke-linecap:butt;stroke-linejoin:miter;stroke-opacity:1;stroke-miterlimit:4;stroke-dasharray:none"
       d="M 187.20508 116.72266 C 186.84659 116.73636 186.50479 116.81416 186.17969 116.95703 C 180.9781 119.2433 174.55274 143.62974 188.93359 169.92188 C 203.31445 196.214 219.53075 211.45471 222.89648 228.2207 C 226.26222 244.98671 235.13504 248.03563 198.41797 251.08398 C 182.814 252.37948 163.96301 251.71699 146.04883 250.5625 C 143.34672 245.76575 140.851 239.5706 139.05859 231.08008 C 137.24649 222.49626 136.8575 215.6738 132.91016 206.32617 C 131.83911 196.42588 129.9225 189.98637 126.51367 185.92578 C 115.89803 173.28045 112.4383 176.78097 115.49805 189.35547 C 118.44773 201.47765 118.9008 208.95104 119.7832 212.59961 C 122.41851 223.49613 125.97574 237.93966 128.78125 249.30273 C 127.75301 249.21987 126.86007 249.14733 125.85156 249.06445 C 121.94023 241.70977 117.52702 234.98132 113.05078 226.69727 C 105.09542 213.74171 101.11762 201.54893 95.916016 189.35547 C 93.468208 172.58948 92.205664 171.8756 83.984375 161.1582 C 74.45873 148.74042 64.741072 151.95345 71.132812 172.58984 C 74.371376 183.04586 79.56609 201.51629 85.513672 220.21875 C 88.680702 230.17763 92.41302 238.43548 96.066406 245.10547 C 92.346823 239.63291 88.56526 234.42083 82.148438 227.83984 C 77.33736 221.50581 73.44847 218.17023 62.882812 209.95117 C 56.212381 194.96887 50.590537 189.92592 44.818359 185.92578 C 20.952267 174.87546 15.751707 190.1168 24.625 198.88086 C 29.707595 203.90087 47.478883 229.52486 60.892578 246.57031 C 59.119009 246.52769 57.370569 246.50827 55.572266 246.42969 C 40.596357 243.87004 25.247329 244.30765 17.585938 249.17969 C 3.2050801 258.32477 -6.2796315 272.80376 29.519531 274.70898 C 48.434606 275.71564 74.474305 277.79865 96.492188 280.31445 C 100.71648 283.94353 104.39747 287.11169 106.32031 288.80859 C 113.5418 295.18154 141.67144 294.34035 170.16992 302.38672 C 184.02857 308.74297 198.06068 315.71155 203.92578 320.81641 C 218.70514 333.68004 265.3135 353.89116 300.30859 357.77734 C 348.34678 363.11196 365.59838 358.62267 386.28711 355.87109 C 450.20183 354.97928 442.31602 357.44685 511.125 356.25195 L 511.43164 261.75391 C 383.4548 273.01477 365.46226 265.66846 342.22656 244.98828 C 309.18124 218.31511 275.21841 218.69476 266.95703 211.83594 C 258.6957 204.97712 227.79108 177.1621 214.32812 153.15625 C 201.70663 130.65076 192.58243 116.51754 187.20508 116.72266 z "
       transform="scale(0.26458334)" />
  </g>
  <style
     type="text/css"
     id="style859">
	.st0{fill:#4B4B4B;}
</style>
</svg>
