<?xml version="1.0" encoding="UTF-8" standalone="no"?>
<!-- Created with Inkscape (http://www.inkscape.org/) -->

<svg
   width="512"
   height="512"
   viewBox="0 0 135.46667 135.46667"
   version="1.1"
   id="svg5"
   inkscape:version="1.1 (c68e22c387, 2021-05-23)"
   sodipodi:docname="palmup-left.svg"
   xmlns:inkscape="http://www.inkscape.org/namespaces/inkscape"
   xmlns:sodipodi="http://sodipodi.sourceforge.net/DTD/sodipodi-0.dtd"
   xmlns="http://www.w3.org/2000/svg"
   xmlns:svg="http://www.w3.org/2000/svg">
  <sodipodi:namedview
     id="namedview7"
     pagecolor="#ffffff"
     bordercolor="#666666"
     borderopacity="1.0"
     inkscape:pageshadow="2"
     inkscape:pageopacity="0.0"
     inkscape:pagecheckerboard="0"
     inkscape:document-units="px"
     showgrid="false"
     inkscape:zoom="1.6017536"
     inkscape:cx="408.92682"
     inkscape:cy="413.29703"
     inkscape:window-width="3840"
     inkscape:window-height="2066"
     inkscape:window-x="-11"
     inkscape:window-y="-11"
     inkscape:window-maximized="1"
     inkscape:current-layer="layer1"
     units="px" />
  <defs
     id="defs2" />
  <g
     inkscape:label="palm up"
     inkscape:groupmode="layer"
     id="layer1"
     style="display:inline">
    <path
       id="path1282"
       style="fill:#000000;fill-opacity:1;stroke:#000000;stroke-width:0.409292px;stroke-linecap:butt;stroke-linejoin:miter;stroke-opacity:1"
       d="m 85.977121,30.882871 c 0.09485,0.0036 0.185286,0.02421 0.271302,0.06201 1.376254,0.604909 3.076297,7.057154 -0.728637,14.013617 -3.804935,6.956456 -8.095498,10.988894 -8.986014,15.424896 -0.890519,4.436007 -3.238119,5.2427 6.476606,6.049243 4.12855,0.342768 9.116208,0.167484 13.856002,-0.137975 0.714933,-1.26914 1.375259,-2.908273 1.849501,-5.154724 0.479455,-2.271135 0.582375,-4.076245 1.626769,-6.549472 0.28338,-2.619452 0.79048,-4.323239 1.6924,-5.397603 2.80872,-3.345744 3.72411,-2.419565 2.91455,0.907439 -0.78044,3.207327 -0.90031,5.184661 -1.13378,6.150012 -0.69726,2.883038 -1.63844,6.704555 -2.38073,9.711034 0.27205,-0.02192 0.50831,-0.04112 0.77514,-0.06305 1.03488,-1.945926 2.20254,-3.726162 3.38688,-5.917983 2.10485,-3.427825 3.15731,-6.653832 4.53357,-9.880018 0.64765,-4.436002 0.9817,-4.624883 3.15691,-7.460528 2.52033,-3.285538 5.09146,-2.435424 3.40031,3.024621 -0.85687,2.766489 -2.2313,7.653457 -3.80493,12.601816 -0.83795,2.634954 -1.82545,4.819844 -2.79208,6.584612 0.98414,-1.447948 1.98468,-2.826978 3.68246,-4.568198 1.27293,-1.675879 2.30187,-2.558418 5.09737,-4.733044 1.76488,-3.964067 3.25233,-5.298348 4.77955,-6.356718 6.31457,-2.923731 7.69055,1.108874 5.34283,3.427698 -1.34477,1.328211 -6.04676,8.107892 -9.5958,12.617834 0.46926,-0.01128 0.93186,-0.01641 1.40767,-0.03721 3.96237,-0.67724 8.02347,-0.561456 10.05054,0.727605 3.80494,2.419635 6.31444,6.250535 -3.15743,6.754624 -5.00461,0.266346 -11.89428,0.817476 -17.71984,1.483114 -1.11768,0.960195 -2.09161,1.798437 -2.60036,2.247408 -1.91069,1.686177 -9.353316,1.463612 -16.893539,3.592547 -3.666768,1.681758 -7.37943,3.525528 -8.931238,4.876189 -3.910373,3.403502 -16.242168,8.751028 -25.501286,9.779247 -12.710105,1.411461 -17.274591,0.22367 -22.748484,-0.504352 -16.91077,-0.235958 -14.824316,0.416919 -33.03002526,0.100769 L 0.19217594,69.255724 C 34.052715,72.23516 38.813241,70.291448 44.96102,64.819817 c 8.743242,-7.057276 17.729241,-6.956827 19.915064,-8.771556 2.18581,-1.81473 10.362658,-9.174121 13.924733,-15.525669 3.339436,-5.954578 5.753547,-9.693992 7.176304,-9.639721 z" />
  </g>
  <style
     type="text/css"
     id="style859">
	.st0{fill:#4B4B4B;}
</style>
</svg>
