<?xml version="1.0" encoding="UTF-8" standalone="no"?>
<!-- Created with Inkscape (http://www.inkscape.org/) -->

<svg
   width="512"
   height="512"
   viewBox="0 0 135.46667 135.46667"
   version="1.1"
   id="svg5"
   inkscape:version="1.1 (c68e22c387, 2021-05-23)"
   sodipodi:docname="palmside-oncanvas.svg"
   xmlns:inkscape="http://www.inkscape.org/namespaces/inkscape"
   xmlns:sodipodi="http://sodipodi.sourceforge.net/DTD/sodipodi-0.dtd"
   xmlns="http://www.w3.org/2000/svg"
   xmlns:svg="http://www.w3.org/2000/svg">
  <sodipodi:namedview
     id="namedview7"
     pagecolor="#ffffff"
     bordercolor="#666666"
     borderopacity="1.0"
     inkscape:pageshadow="2"
     inkscape:pageopacity="0.0"
     inkscape:pagecheckerboard="0"
     inkscape:document-units="px"
     showgrid="false"
     inkscape:zoom="1.6017536"
     inkscape:cx="408.92682"
     inkscape:cy="413.29703"
     inkscape:window-width="3840"
     inkscape:window-height="2066"
     inkscape:window-x="-11"
     inkscape:window-y="-11"
     inkscape:window-maximized="1"
     inkscape:current-layer="layer4"
     units="px" />
  <defs
     id="defs2" />
  <g
     inkscape:groupmode="layer"
     id="layer4"
     inkscape:label="palm side"
     style="display:inline">
    <path
       style="fill:#fa8072;fill-opacity:0.60000002;stroke:#ff6347;stroke-width:2.6458334;stroke-linecap:butt;stroke-linejoin:miter;stroke-opacity:1;stroke-miterlimit:4;stroke-dasharray:none"
       d="M 113.47235,14.742178 C 97.111141,25.829915 83.869066,35.478339 82.516901,36.154407 c -1.352164,0.676084 -2.569113,2.974763 -16.766839,5.003014 -14.19772,2.028236 -20.823327,2.569108 -27.448927,7.977762 -6.625607,5.408672 -8.789066,8.653861 -18.119003,10.546884 -9.329929,1.893022 -16.2259663,4.867801 -10.141231,7.707325 6.084741,2.839551 19.741598,1.622597 21.364197,0 1.622594,-1.622586 1.893029,-2.974754 1.893029,-2.974754 0,0 -2.298682,4.326923 -2.70433,4.867792 -0.40565,0.540856 -8.924282,9.329932 -12.034259,12.980778 -3.109979,3.65083 -7.977772,9.194715 -10.4116665,12.169494 -2.4338948,2.974748 -6.9302499,8.957088 -6.6598166,11.390998 0.2704311,2.43389 1.9832526,4.50315 4.822794,3.69185 2.8395476,-0.81132 6.8280991,-5.16101 10.0456181,-8.32063 3.330496,-3.270568 8.287807,-7.438302 9.775191,-8.655256 1.48738,-1.21697 5.27344,-6.084755 7.572117,-8.24822 2.298678,-2.163467 3.855243,-3.853137 5.074012,-4.747568 l 1.822025,-1.337172 c 0,0 -3.515624,4.462144 -6.760819,7.301693 -3.245196,2.83955 -7.436905,5.814297 -11.358178,10.00603 -3.921277,4.191692 -5.40866,5.273443 -8.924284,8.924293 -3.51563,3.65083 -8.0597928,8.18821 -9.2767397,10.6071 -1.0114149,2.01034 1.1637552,7.10623 6.1667617,4.26669 5.003006,-2.83955 13.602256,-9.82159 14.413554,-10.49768 0.8113,-0.67606 6.274557,-3.97047 8.167585,-5.86349 1.893031,-1.89304 6.896037,-6.760829 10.817313,-10.141248 3.921278,-3.38042 5.273443,-4.326932 5.273443,-4.326932 0,0 -9.687776,9.447347 -11.493396,11.087749 -1.361253,1.236711 -10.806296,7.510721 -12.15846,9.133321 -1.352165,1.62262 -9.465966,6.52859 -10.374877,8.99529 -1.26455,3.43187 0.298324,5.72541 4.601581,4.57414 5.154349,-1.37896 7.981969,-4.41136 10.628901,-5.96194 4.749268,-2.78213 6.326344,-4.97159 8.219374,-6.05332 1.893031,-1.08173 -6.499185,5.09779 -7.247087,6.23238 -1.521593,2.30829 0.676082,3.27798 2.163463,3.00756 1.487382,-0.27043 6.647354,-3.18612 11.430594,-4.98942 2.986328,-1.85159 6.455049,-3.57112 9.370689,-5.40336 4.353729,-2.73597 7.425336,-5.76939 8.718317,-6.6583 2.163462,-1.48739 8.775228,-3.222396 14.143363,-7.240293 4.378168,-3.276951 11.480727,-10.645081 15.402005,-16.72982 3.921274,-6.08474 12.304695,-16.902058 19.335945,-22.04027 7.03125,-5.138229 17.57813,-10.546884 19.33594,-11.899052 1.7578,-1.352168 1.89303,-1.352168 1.89303,-1.352168 z"
       id="path11352"
       sodipodi:nodetypes="csssssscssssssssscsssssssscsssssssscsssssscc" />
  </g>
  <style
     type="text/css"
     id="style859">
	.st0{fill:#4B4B4B;}
</style>
</svg>
