<?xml version="1.0" encoding="UTF-8" standalone="no"?>
<!-- Created with Inkscape (http://www.inkscape.org/) -->

<svg
   width="512"
   height="512"
   viewBox="0 0 135.46667 135.46667"
   version="1.1"
   id="svg5"
   inkscape:version="1.1 (c68e22c387, 2021-05-23)"
   sodipodi:docname="pointing-oncanvas.svg"
   xmlns:inkscape="http://www.inkscape.org/namespaces/inkscape"
   xmlns:sodipodi="http://sodipodi.sourceforge.net/DTD/sodipodi-0.dtd"
   xmlns="http://www.w3.org/2000/svg"
   xmlns:svg="http://www.w3.org/2000/svg">
  <sodipodi:namedview
     id="namedview7"
     pagecolor="#ffffff"
     bordercolor="#666666"
     borderopacity="1.0"
     inkscape:pageshadow="2"
     inkscape:pageopacity="0.0"
     inkscape:pagecheckerboard="0"
     inkscape:document-units="px"
     showgrid="false"
     inkscape:zoom="1.6017536"
     inkscape:cx="409.55113"
     inkscape:cy="413.29703"
     inkscape:window-width="3840"
     inkscape:window-height="2066"
     inkscape:window-x="-11"
     inkscape:window-y="-11"
     inkscape:window-maximized="1"
     inkscape:current-layer="layer5"
     units="px" />
  <defs
     id="defs2" />
  <g
     inkscape:groupmode="layer"
     id="layer5"
     inkscape:label="pointing"
     style="display:inline">
    <path
       id="path18633"
       style="fill:#fa8072;fill-opacity:0.60000002;stroke:#ff6347;stroke-width:2.6458334;stroke-linecap:butt;stroke-linejoin:miter;stroke-opacity:1;stroke-miterlimit:4;stroke-dasharray:none"
       d="m 3.240727,44.979417 c -3.69945129,0.564103 -3.12576662,3.668422 -0.3256719,5.531007 1.8690537,1.041772 4.7242039,1.706289 6.3564375,2.008173 2.5855944,0.478205 7.9529924,0.677227 10.3075414,1.100777 2.354548,0.423549 8.157012,1.028781 9.44321,1.268748 1.286211,0.239968 9.602081,0.625936 11.913515,2.293667 2.311433,1.667731 1.896536,1.653717 1.896536,1.653717 0,0 -2.999043,6.197548 -3.87935,8.340863 -0.880294,2.143328 -2.04902,4.862945 -0.721876,6.740788 1.327156,1.877892 3.373484,5.53353 3.589298,6.097513 l 0.411534,1.075477 c 0,0 -1.532503,0.533042 -3.158204,3.041317 -1.625702,2.508287 -2.278971,4.409771 -2.074465,5.655098 0.253214,1.541825 1.380775,2.715983 3.600582,2.458312 2.422413,-0.28118 4.439505,-0.845406 6.418991,-1.268017 l 2.362409,-0.504356 c 0,0 2.416417,2.160315 3.456007,3.173355 1.039602,1.013021 2.382248,2.964294 3.413807,2.97564 0.805131,0.0086 3.120501,-1.168292 3.594404,-2.928396 0.301348,-1.119237 0.1009,-2.902872 -1.423134,-4.73871 -1.523997,-1.835838 -1.544957,-1.934203 -1.544957,-1.934203 0,0 0.996805,-0.753499 1.893428,-1.253675 0.896369,-0.500017 2.142988,-1.049168 2.142988,-1.049168 0,0 2.479198,2.455168 4.587151,3.651764 2.107927,1.19663 4.864468,2.898008 5.974822,3.278419 1.110379,0.380448 2.130569,0.702671 4.13784,0.222639 1.758749,-0.641582 1.302565,-3.338619 0.144222,-5.949026 0.546178,0.0097 1.186176,-0.509083 1.407401,-0.762857 0.330644,-0.379315 0.929258,-1.433212 0.220335,-2.825563 -0.70891,-1.392375 -1.89567,-3.094362 -1.89567,-3.094362 0,0 9.194956,-0.579787 12.001802,-1.715208 7.677182,-1.35828 11.813658,-6.949693 20.29647,-4.145005 14.48466,1.908027 17.19535,1.83903 27.86154,2.715327 l 0.0275,-27.640768 c -14.81282,-0.945795 -26.7646,0.419809 -30.31357,-0.777895 -3.54897,-1.19768 -7.245185,-2.72827 -19.322018,-5.78293 C 74.04,38.856254 66.45043,41.237586 61.213813,40.811843 c -5.23663,-0.42573 -5.960066,0.552016 -8.29536,1.153494 -2.438583,0.628092 -4.854988,1.733023 -10.991836,1.911134 -6.136861,0.178124 -16.733869,0.303226 -19.475495,0.476877 -2.741625,0.173662 -11.500748,0.602952 -15.8448725,0.501248 -1.6290529,-0.03815 -2.6771872,0.0025 -3.3655349,0.124821 z m 49.766477,19.093414 c 0,0 0.617819,0.485541 0.427596,1.040736 -0.190212,0.555183 -1.105602,3.014714 -1.253784,3.766751 -0.148195,0.752036 -0.601564,5.377061 -0.475475,5.967645 0.126077,0.59056 0.863819,1.153651 0.863819,1.153651 l -1.792845,0.279743 c 0,0 -0.02072,-0.09846 -0.652234,-1.610311 -0.631504,-1.511811 -0.5754,-1.729637 -0.188334,-2.326861 0.387076,-0.597213 1.225512,-2.937345 3.071257,-8.271354 z"
       sodipodi:nodetypes="ccsssscssscsssscsssscscssccsscccccsssssssccsssccsscs" />
  </g>
  <style
     type="text/css"
     id="style859">
	.st0{fill:#4B4B4B;}
</style>
</svg>
