<?xml version="1.0" encoding="UTF-8" standalone="no"?>
<!-- Created with Inkscape (http://www.inkscape.org/) -->

<svg
   width="512"
   height="512"
   viewBox="0 0 135.46667 135.46667"
   version="1.1"
   id="svg5"
   inkscape:version="1.1 (c68e22c387, 2021-05-23)"
   sodipodi:docname="raisehand-left.svg"
   xmlns:inkscape="http://www.inkscape.org/namespaces/inkscape"
   xmlns:sodipodi="http://sodipodi.sourceforge.net/DTD/sodipodi-0.dtd"
   xmlns="http://www.w3.org/2000/svg"
   xmlns:svg="http://www.w3.org/2000/svg">
  <sodipodi:namedview
     id="namedview7"
     pagecolor="#ffffff"
     bordercolor="#666666"
     borderopacity="1.0"
     inkscape:pageshadow="2"
     inkscape:pageopacity="0.0"
     inkscape:pagecheckerboard="0"
     inkscape:document-units="px"
     showgrid="false"
     inkscape:zoom="1.6017536"
     inkscape:cx="408.92682"
     inkscape:cy="413.29703"
     inkscape:window-width="3840"
     inkscape:window-height="2066"
     inkscape:window-x="-11"
     inkscape:window-y="-11"
     inkscape:window-maximized="1"
     inkscape:current-layer="layer6"
     units="px" />
  <defs
     id="defs2" />
  <g
     inkscape:groupmode="layer"
     id="layer6"
     inkscape:label="hand raise"
     style="display:inline">
    <path
       style="display:inline;fill:#000000;fill-opacity:1;stroke:#000000;stroke-width:0.716944px;stroke-linecap:butt;stroke-linejoin:miter;stroke-opacity:1"
       d="m 56.766243,135.13394 c 0.559496,-17.45648 1.123548,-28.84282 0.171826,-30.91159 -1.02824,-2.23512 -4.41672,-4.247117 -6.241584,-6.558107 -2.309981,-2.925357 -3.941323,-6.269724 -5.843626,-10.298128 -1.902309,-4.028378 -4.11083,-8.012788 -4.435277,-13.567005 -0.368287,-6.304462 1.083756,-8.039882 0.947164,-13.597526 -0.191136,-7.77742 -0.600215,-12.46166 -1.607321,-15.371057 -1.007105,-2.90941 -1.266968,-7.505257 1.418623,-7.729073 2.685609,-0.22383 4.790099,2.002954 6.381615,5.51261 1.246643,2.749149 1.826024,3.984784 2.317121,7.470155 0.491098,3.485399 -0.182473,10.39461 2.917345,13.196261 0.157732,-8.052337 0.838632,-8.964444 1.864869,-14.220242 1.126957,-3.154738 2.002725,-12.396123 2.543257,-18.181157 0.43748,-4.682079 0.854479,-6.815608 0.966374,-11.179717 0.111915,-4.364107 1.509009,-8.103161 1.732808,-9.66976 2.151481,-8.599844 7.194818,-7.9372625 8.168705,0.895208 0.223795,3.245098 -0.23737,7.360595 -0.573079,8.479563 -0.335696,1.119009 -0.428411,8.665007 -0.428411,10.791124 0,2.12609 -0.420457,7.229467 -0.644253,10.250778 0.811736,9.219207 1.517424,5.239743 1.684127,-1.568926 -0.223795,-3.362651 0.752859,-8.017455 0.870379,-14.071312 0.139604,-7.191635 0.09832,-10.971831 0.322129,-15.000223 2.309833,-10.77508257 7.658671,-11.4051665 9.11588,-0.9087827 -0.428412,6.2541927 0.06789,9.2684937 0.179789,11.8422147 0.111915,2.573693 0.215857,7.306252 0.215857,10.103761 0,2.79751 0.223794,1.5666 -0.223796,8.504415 -0.447604,6.937802 -0.559504,6.937802 -0.559504,6.937802 0,0 0.895206,-9.063892 1.230901,-11.301896 0.335704,-2.238005 0.111915,-3.2451 0.895202,-8.728217 0.135534,-3.444312 0.877988,-7.426173 0.989936,-12.225667 0.211169,-9.0536684 5.845593,-13.12311889 7.645574,-4.4722411 0.671395,3.6926881 -0.2122,10.2399311 -0.18307,12.0851881 0.05198,3.293804 -0.119839,9.274118 -0.0079,11.624037 0.111902,2.349878 -0.8952,14.137791 -1.119002,16.263922 -0.223794,2.12609 0.283716,3.356987 0.283716,3.356987 0,0 0.96638,-9.57706 1.078272,-11.591277 0.111915,-2.014188 0.152639,-11.907737 1.159732,-14.817147 3.896502,-9.870304 7.129346,-2.774805 7.344675,2.461807 0.111915,4.476009 -0.46681,5.938658 -0.46681,11.309847 0,2.406936 -0.324302,5.191521 -0.347423,7.565419 0.01109,8.668304 1.954166,12.619787 1.671031,22.621454 -0.895203,8.616269 -4.697472,23.162319 -6.487872,28.085912 -1.790406,4.923596 -5.182513,6.173726 -5.070611,11.880606 0.1119,5.7069 0.447601,16.33742 0.671404,20.58962 0.223796,4.25219 0.223796,4.47602 0.223796,4.47602 z"
       id="path24929"
       sodipodi:nodetypes="csssssssszccssccssccsccssscscscssscsccsccssscc" />
  </g>
  <style
     type="text/css"
     id="style859">
	.st0{fill:#4B4B4B;}
</style>
</svg>
