<?xml version="1.0" encoding="UTF-8" standalone="no"?>
<!-- Created with Inkscape (http://www.inkscape.org/) -->

<svg
   width="512"
   height="512"
   viewBox="0 0 135.46667 135.46667"
   version="1.1"
   id="svg5"
   inkscape:version="1.1 (c68e22c387, 2021-05-23)"
   sodipodi:docname="pointing-left.svg"
   xmlns:inkscape="http://www.inkscape.org/namespaces/inkscape"
   xmlns:sodipodi="http://sodipodi.sourceforge.net/DTD/sodipodi-0.dtd"
   xmlns="http://www.w3.org/2000/svg"
   xmlns:svg="http://www.w3.org/2000/svg">
  <sodipodi:namedview
     id="namedview7"
     pagecolor="#ffffff"
     bordercolor="#666666"
     borderopacity="1.0"
     inkscape:pageshadow="2"
     inkscape:pageopacity="0.0"
     inkscape:pagecheckerboard="0"
     inkscape:document-units="px"
     showgrid="false"
     inkscape:zoom="1.6017536"
     inkscape:cx="409.55113"
     inkscape:cy="413.29703"
     inkscape:window-width="3840"
     inkscape:window-height="2066"
     inkscape:window-x="-11"
     inkscape:window-y="-11"
     inkscape:window-maximized="1"
     inkscape:current-layer="layer5"
     units="px" />
  <defs
     id="defs2" />
  <g
     inkscape:groupmode="layer"
     id="layer5"
     inkscape:label="pointing"
     style="display:inline">
    <path
       id="path18633"
       style="fill:#000000;fill-opacity:1;stroke:#000000;stroke-width:0.322422px;stroke-linecap:butt;stroke-linejoin:miter;stroke-opacity:1"
       d="m 132.54713,44.979417 c 3.69945,0.564103 3.12576,3.668422 0.32567,5.531007 -1.86906,1.041772 -4.72421,1.706289 -6.35644,2.008173 -2.58559,0.478205 -7.95299,0.677227 -10.30754,1.100777 -2.35455,0.423549 -8.15701,1.028781 -9.44321,1.268748 -1.28621,0.239968 -9.60208,0.625936 -11.913514,2.293667 -2.311433,1.667731 -1.896536,1.653717 -1.896536,1.653717 0,0 2.999043,6.197548 3.87935,8.340863 0.880294,2.143328 2.04902,4.862945 0.721876,6.740788 -1.327156,1.877892 -3.373484,5.53353 -3.589298,6.097513 l -0.411534,1.075477 c 0,0 1.532503,0.533042 3.158204,3.041317 1.625702,2.508287 2.278971,4.409771 2.074465,5.655098 -0.253214,1.541825 -1.380775,2.715983 -3.600582,2.458312 -2.422413,-0.28118 -4.439505,-0.845406 -6.418991,-1.268017 l -2.362409,-0.504356 c 0,0 -2.416417,2.160315 -3.456007,3.173355 -1.039602,1.013021 -2.382248,2.964294 -3.413807,2.97564 -0.805131,0.0086 -3.120501,-1.168292 -3.594404,-2.928396 -0.301348,-1.119237 -0.1009,-2.902872 1.423134,-4.73871 1.523997,-1.835838 1.544957,-1.934203 1.544957,-1.934203 0,0 -0.996805,-0.753499 -1.893428,-1.253675 -0.896369,-0.500017 -2.142988,-1.049168 -2.142988,-1.049168 0,0 -2.479198,2.455168 -4.587151,3.651764 -2.107927,1.19663 -4.864468,2.898008 -5.974822,3.278419 -1.110379,0.380448 -2.130569,0.702671 -4.13784,0.222639 -1.758749,-0.641582 -1.302565,-3.338619 -0.144222,-5.949026 -0.546178,0.0097 -1.186176,-0.509083 -1.407401,-0.762857 -0.330644,-0.379315 -0.929258,-1.433212 -0.220335,-2.825563 0.70891,-1.392375 1.89567,-3.094362 1.89567,-3.094362 0,0 -9.194956,-0.579787 -12.001802,-1.715208 -7.677182,-1.35828 -11.813658,-6.949693 -20.29647,-4.145005 -14.48466,1.908027 -17.19535,1.83903 -27.86153922,2.715327 l -0.0275,-27.640768 C 14.923505,47.506909 26.875285,48.872513 30.424255,47.674809 c 3.54897,-1.19768 7.245185,-2.72827 19.322018,-5.78293 12.001582,-3.035625 19.591152,-0.654293 24.827769,-1.080036 5.23663,-0.42573 5.960066,0.552016 8.29536,1.153494 2.438583,0.628092 4.854988,1.733023 10.991836,1.911134 6.136865,0.178124 16.733862,0.303226 19.475492,0.476877 2.74163,0.173662 11.50075,0.602952 15.84487,0.501248 1.62906,-0.03815 2.67719,0.0025 3.36554,0.124821 z M 82.780651,64.072831 c 0,0 -0.617819,0.485541 -0.427596,1.040736 0.190212,0.555183 1.105602,3.014714 1.253784,3.766751 0.148195,0.752036 0.601564,5.377061 0.475475,5.967645 -0.126077,0.59056 -0.863819,1.153651 -0.863819,1.153651 l 1.792845,0.279743 c 0,0 0.02072,-0.09846 0.652234,-1.610311 0.631504,-1.511811 0.5754,-1.729637 0.188334,-2.326861 -0.387076,-0.597213 -1.225512,-2.937345 -3.071257,-8.271354 z"
       sodipodi:nodetypes="ccsssscssscsssscsssscscssccsscccccsssssssccsssccsscs" />
  </g>
  <style
     type="text/css"
     id="style859">
	.st0{fill:#4B4B4B;}
</style>
</svg>
