<?xml version="1.0" encoding="UTF-8" standalone="no"?>
<!-- Created with Inkscape (http://www.inkscape.org/) -->

<svg
   width="210mm"
   height="297mm"
   viewBox="0 0 744.09448819 1052.3622047"
   id="svg2"
   version="1.1"
   inkscape:version="1.1 (c68e22c387, 2021-05-23)"
   sodipodi:docname="erica.svg"
   xmlns:inkscape="http://www.inkscape.org/namespaces/inkscape"
   xmlns:sodipodi="http://sodipodi.sourceforge.net/DTD/sodipodi-0.dtd"
   xmlns="http://www.w3.org/2000/svg"
   xmlns:svg="http://www.w3.org/2000/svg"
   xmlns:rdf="http://www.w3.org/1999/02/22-rdf-syntax-ns#"
   xmlns:cc="http://creativecommons.org/ns#"
   xmlns:dc="http://purl.org/dc/elements/1.1/">
  <defs
     id="defs4" />
  <sodipodi:namedview
     id="base"
     pagecolor="#ffffff"
     bordercolor="#666666"
     borderopacity="1.0"
     inkscape:pageopacity="0.0"
     inkscape:pageshadow="2"
     inkscape:zoom="0.70710678"
     inkscape:cx="1016.8196"
     inkscape:cy="429.92092"
     inkscape:document-units="px"
     inkscape:current-layer="g4277"
     showgrid="false"
     inkscape:window-width="3840"
     inkscape:window-height="2066"
     inkscape:window-x="-11"
     inkscape:window-y="-11"
     inkscape:window-maximized="1"
     inkscape:pagecheckerboard="0" />
  <metadata
     id="metadata7">
    <rdf:RDF>
      <cc:Work
         rdf:about="">
        <dc:format>image/svg+xml</dc:format>
        <dc:type
           rdf:resource="http://purl.org/dc/dcmitype/StillImage" />
      </cc:Work>
    </rdf:RDF>
  </metadata>
  <g
     style="display:inline"
     inkscape:label="統合白黒"
     id="g4277"
     inkscape:groupmode="layer">
    <path
       inkscape:export-ydpi="90"
       inkscape:export-xdpi="90"
       sodipodi:nodetypes="sssssccsscssssssssscsssssssssssscssssssssssssssss"
       inkscape:connector-curvature="0"
       id="path4279"
       d="m 425.05303,760.94051 c -29.26153,-4.29797 -53.26446,-21.22075 -65.5874,-46.24109 -6.03163,-12.24652 -8.94177,-23.9958 -9.72619,-39.26797 -0.81487,-15.8652 1.5443,-21.47316 15.57648,-37.02668 10.59842,-11.74749 14.62463,-15.32647 22.37993,-19.89406 9.49546,-5.59247 40.4811,-20.29793 48.50234,-24.2767 5.61278,-5.01656 8.06326,-12.96255 8.59294,-21.06394 0.58069,-10.97589 -1.7526,-18.74777 -11.65058,-38.80642 -2.68671,-5.44472 -5.40757,-11.21585 -6.04634,-12.82474 l -1.16141,-2.92524 -7.63911,3.81758 c -8.65829,4.32691 -14.14411,5.92199 -20.36704,5.92199 -9.38493,0 -16.02451,-2.97849 -31.46625,-14.11563 -5.25027,-3.78669 -17.20755,-12.13898 -26.57172,-18.56066 -29.25238,-20.06043 -55.85052,-39.68796 -65.70572,-48.48616 -14.37945,-12.8372 -25.23471,-27.33649 -33.57606,-44.84729 -4.0683,-8.5405 -5.81826,-13.33524 -10.23827,-28.05201 -5.96569,-19.86325 -12.30622,-32.43733 -25.53829,-50.64566 -5.07807,-6.98781 -11.68441,-22.9542 -16.82314,-40.65864 l -2.56548,-8.83884 -0.17711,-27.57716 c -0.20083,-31.2723 0.18068,-34.99081 5.12228,-49.92536 5.75732,-17.39984 17.56256,-36.61767 29.78305,-48.48405 6.55554,-6.36559 8.27783,-7.76547 14.41504,-11.71665 18.14965,-11.68485 40.2964,-18.39222 77.42819,-23.44992 23.12651,-3.15004 70.77112,-8.87792 80.61018,-9.69102 23.59647,-1.95002 50.03618,1.23639 69.29646,8.35133 9.31893,3.4425 23.11886,10.66975 31.1127,16.29422 8.69098,6.11497 26.24574,23.67255 33.23825,33.24358 19.01047,26.02065 31.12699,54.61836 35.72423,84.31721 1.5586,10.06871 2.16054,36.69415 1.10359,48.81422 -2.39028,27.40946 -9.52122,58.55279 -19.74725,86.24317 l -3.52531,9.54595 3.21672,6.0104 c 7.81962,14.61082 17.44158,28.25817 35.3964,50.20459 5.24988,6.41699 11.96637,14.97839 14.92554,19.02533 16.73992,22.89343 29.6925,34.31777 68.66635,60.56458 20.92439,14.09145 26.64288,18.41432 30.89708,23.35653 1.86868,2.1709 8.88214,8.86578 15.58546,14.87753 6.70333,6.01174 14.49776,13.70096 17.32097,17.08713 6.55564,7.86289 15.03187,16.18919 32.71657,32.13785 7.77817,7.01463 14.72444,13.30053 15.43614,13.96866 1.23741,1.16168 0.88177,1.44874 -8.13173,6.56362 -20.26996,11.50257 -66.94982,32.72375 -108.42068,49.28924 -29.11668,11.63063 -47.02204,17.8733 -86.26703,30.07684 -15.81992,4.91933 -27.89999,9.92099 -53.74738,22.2537 -12.83799,6.12546 -26.78356,12.63585 -30.99017,14.46753 -10.50986,4.57631 -24.95452,9.21006 -32.94356,10.56808 -7.07728,1.20303 -21.50124,1.39328 -28.43367,0.37503 z"
       style="display:inline;fill:#f2f2f2;fill-opacity:1;stroke:none" />
    <path
       inkscape:export-ydpi="90"
       inkscape:export-xdpi="90"
       sodipodi:nodetypes="ssssssssssssccssssssssssssscccccs"
       inkscape:connector-curvature="0"
       id="path4281"
       d="m 276.42684,1258.4764 c 4.34505,-19.1157 5.76482,-42.814 3.59028,-59.9273 -4.96729,-39.092 -22.61847,-89.0004 -63.14608,-178.5445 -10.69974,-23.64066 -13.91054,-31.68808 -17.53724,-43.95468 -5.22153,-17.66078 -7.38736,-32.23832 -7.38736,-49.72203 0,-31.13322 7.03953,-53.87091 26.77822,-86.49366 3.81222,-6.30057 8.30366,-14.00116 9.98099,-17.11243 5.89253,-10.93002 16.77131,-27.94945 43.39018,-67.88226 28.68459,-43.03175 32.88901,-49.63106 37.61671,-59.04378 4.43818,-8.83628 5.27048,-12.84906 5.27048,-25.41057 0,-16.31231 2.38546,-25.04245 9.84367,-36.02514 7.78192,-11.45939 21.81992,-23.07739 35.43376,-29.32536 10.08314,-4.62758 82.1088,-26.21173 83.80725,-25.22241 -1.32568,5.31288 -2.03834,8.39979 -4.29074,13.65383 -6.79569,2.07601 -26.09452,11.78821 -34.79877,18.40415 -6.21865,4.72668 -16.77794,12.88657 -20.67424,18.16494 -13.00806,17.62215 -14.34955,39.83903 -3.05271,50.5572 8.44096,8.00858 27.60702,10.36317 51.46506,6.32259 26.10559,-4.42122 79.28488,-21.34601 173.59472,-55.24808 54.45822,-19.5764 82.78133,-33.04084 93.13815,-44.27667 4.03749,-4.38015 9.39233,-15.14529 9.39233,-18.88191 0,-3.32936 -1.42398,-7.0754 -3.94695,-10.38319 -0.98003,-1.28488 -1.58225,-2.33615 -1.33826,-2.33615 0.83212,0 22.58632,15.86826 31.09461,22.68147 15.08367,12.07861 32.69027,28.02376 64.6672,58.56485 22.56395,21.55079 32.71685,30.35506 43.52014,37.73928 8.7416,5.97501 20.87008,17.24896 24.67902,22.94021 l 1.99395,2.97932 -0.52829,279.68662 -0.52828,279.68656 H 572.25992 276.06521 Z"
       style="display:inline;fill:#4d4d4d;fill-opacity:1;stroke:none" />
    <path
       style="display:inline;fill:#373737;fill-opacity:1;fill-rule:evenodd;stroke:none;stroke-width:1px;stroke-linecap:butt;stroke-linejoin:miter;stroke-opacity:1"
       d="m 6.0104076,758.20578 c -84.4992606,14.84925 -145.6639976,83.4386 -145.6639976,83.4386 l 5.65685,31.1127 58.689868,27.93072 80.2566195,-53.74012 14.4956885,-66.82159 z"
       id="path4785"
       inkscape:connector-curvature="0"
       inkscape:export-xdpi="90"
       inkscape:export-ydpi="90" />
    <path
       style="display:inline;fill:#f2f2f2;fill-opacity:1;fill-rule:evenodd;stroke:none;stroke-width:1px;stroke-linecap:butt;stroke-linejoin:miter;stroke-opacity:1"
       d="m 0,768.10528 c -26.870058,-60.81118 -22.627417,-76.36753 -25.455844,-93.3381 -2.828427,-16.97056 0,-42.4264 -25.455844,-57.98275 -25.455844,-15.55635 -31.112699,-14.14214 -72.124892,-32.52691 -41.01219,-18.38478 -46.66905,-33.94113 -52.3259,-36.76956 -5.65686,-2.82842 -15.84503,0.1131 -16.97056,5.65686 -1.25,6.15685 -1.73529,14.56371 4.24264,25.45584 9.15415,16.67938 42.4264,35.35534 48.08326,38.18377 5.65685,2.82842 -35.35534,-21.21321 -89.09546,-26.87006 -53.74011,-5.65685 -74.63254,-10.11402 -98.99495,-4.24264 -18.71889,4.31397 -10.55151,14.03427 -10.55151,14.03427 0,0 -15.33286,-0.36052 -20.35282,8.5 -5.2912,9.33928 3.57843,12.79899 3.57843,12.79899 0,0 -8.24427,6.24933 -8.38477,14.19849 -0.10371,5.86782 17.01471,14.24264 17.01471,14.24264 0,0 -10.58173,5.78728 -4.97056,16.80635 5.33503,10.47679 72.23028,58.00555 131.24656,78.89768 53.85661,19.06558 77.8827,23.0022 103.58144,77.76631 45.740111,82.26703 57.5391,136.10765 57.5391,136.10765 L 53.740115,889.72765 c 0,0 -33.941125,-84.85282 -53.740115,-121.62237 z"
       id="path4787"
       inkscape:connector-curvature="0"
       sodipodi:nodetypes="cssssssssccscscsscccc"
       inkscape:export-xdpi="90"
       inkscape:export-ydpi="90" />
    <path
       style="display:inline;fill:#4d4d4d;fill-opacity:1;fill-rule:evenodd;stroke:none;stroke-width:1px;stroke-linecap:butt;stroke-linejoin:miter;stroke-opacity:1"
       d="M 230.51681,974.58046 148.49242,1097.617 c 0,0 -69.296461,-223.4457 -96.166518,-272.94318 C 25.455844,775.17635 5.6568542,758.20578 5.6568542,758.20578 v 21.21321 c 0,0 4.2426407,14.14213 -18.3847762,32.52691 -22.627417,18.38478 -94.752308,63.63961 -110.308658,55.15433 -15.55635,-8.48528 -14.14214,-28.28427 -14.14214,-28.28427 0,0 -16.97056,12.72792 -9.89949,28.28427 7.07107,15.55635 21.2132,26.87006 42.42641,60.81118 21.2132,33.94113 74.953315,185.26199 97.5807322,243.24469 22.6274168,57.9828 28.2842708,80.6102 50.9116878,107.4803 22.627417,26.87 63.63961,32.5269 76.36753,32.5269 12.72792,0 36.76956,5.6568 50.91169,-2.8284 14.14214,-8.4853 67.88225,-83.4386 98.99495,-124.4508 31.1127,-41.0122 94.75231,-113.1371 94.75231,-113.1371 L 227.68838,968.9236 v 0"
       id="path4789"
       inkscape:connector-curvature="0"
       inkscape:export-xdpi="90"
       inkscape:export-ydpi="90" />
    <path
       inkscape:export-ydpi="90"
       inkscape:export-xdpi="90"
       style="display:inline;fill:#808080;fill-opacity:1;fill-rule:evenodd;stroke:none;stroke-width:1px;stroke-linecap:butt;stroke-linejoin:miter;stroke-opacity:1"
       d="m 372.70703,-12.767578 c -9.50655,0.01961 -18.93969,1.115115 -28.24414,3.4589842 -66.16499,16.6675171 -64.14648,15.6582032 -64.14648,15.6582032 0,0 -54.04271,4.0392756 -87.88282,62.1230466 -24.33963,41.776984 -48.15379,88.519904 -49.83593,129.513674 -3.44959,20.0761 -4.71488,36.95064 -5.72266,50.79883 6.06092,36.3655 11.61759,52.52855 15.6582,59.59961 4.04061,7.07107 5.55664,8.08203 5.55664,8.08203 0,0 -3.0312,38.38483 7.07032,56.0625 l 10.10156,17.67773 c 0,0 -1.0109,38.89106 12.12109,53.0332 13.13198,14.14214 16.66797,13.63672 16.66797,13.63672 0,0 -10.60741,31.3141 -5.55664,42.42578 l 5.05078,11.11329 c 0,0 -5.55467,24.74729 -3.0293,31.81836 2.52539,7.07106 4.04102,12.62695 4.04102,12.62695 0,0 -9.59763,21.71844 -2.02148,42.93164 7.57614,21.2132 7.07226,20.70898 7.07226,20.70898 0,0 -13.6371,20.20358 -10.10156,34.34571 l 3.53516,14.14062 c 0,0 -2.01992,15.15237 -1.00977,20.20313 l 1.00977,5.05078 c 0,0 -33.84064,46.46851 -34.34571,87.88476 l -0.50586,41.41602 c 0,0 -11.11017,29.79895 -16.66601,62.62891 -5.55584,32.82994 -14.64842,105.05637 -9.59766,133.84572 5.05077,28.7894 18.18286,58.0828 30.30469,71.2148 12.12183,13.132 19.19338,31.8193 24.24414,47.4766 5.05076,15.6574 6.56521,33.8415 -0.50586,50.0039 -7.07106,16.1624 -21.21253,28.7886 -27.27344,34.8496 -6.06092,6.0609 -7.57617,7.0723 -7.57617,7.0723 0,0 44.4461,-31.315 47.47656,-47.9825 3.03046,-16.6675 4.04218,-24.7497 1.01172,-43.4375 -3.03045,-18.6878 -11.11289,-42.427 -12.12304,-57.0742 -1.01016,-14.6472 -0.50391,-18.1816 -0.50391,-18.1816 0,0 27.27425,28.7894 32.83008,40.4062 5.55584,11.6167 11.11054,24.2423 10.60547,46.9707 -0.50508,22.7285 -1.51563,33.8418 -1.51563,33.8418 0,0 8.5863,-53.5383 2.52539,-85.8632 -6.06092,-32.3249 -27.27344,-122.22903 -27.27344,-141.42192 0,-19.1929 1.01019,-109.09589 7.57618,-157.07813 6.566,-47.98225 4.04062,-79.80355 5.05078,-90.41015 l 1.00976,-10.60547 c 0,0 9.59765,-21.71878 7.07227,-29.29492 l -2.52539,-7.57618 c 0,0 12.12108,-19.19223 7.07031,-32.32421 l -5.05078,-13.13282 c 0,0 12.12264,-20.20163 8.08203,-39.39453 l -4.04102,-19.19336 c 0,0 -1.51562,-40.40665 -1.51562,-44.44726 v -4.04102 c 0,0 11.61677,-22.72741 2.52539,-40.91015 -9.09137,-18.18275 -10.60742,-19.19336 -10.60742,-19.19336 0,0 14.64843,-28.78874 12.12305,-44.95118 -0.66659,-4.26614 -2.03868,-24.12683 -13.90342,-49.80652 -10.62892,-23.00493 -31.21447,-50.60998 -42.05257,-77.0026 26.05074,11.93669 54.05267,19.15554 77.06828,18.51916 6.45704,-0.17853 22.18936,-5.05072 22.18936,-5.05072 0,0 -40.8509,-13.38346 -24.64444,-13.59966 32.00931,-0.42701 57.64114,-7.22215 57.64114,-7.22215 0,0 -34.90691,-16.24924 -20.96732,-17.27606 56.28448,-4.14604 38.23817,-28.67301 64.57447,-33.11659 33.67923,-5.68252 84.44843,-15.25454 113.74285,-7.67841 29.29443,7.57615 53.23486,15.96217 57.27547,43.74137 4.04061,27.77919 20.70811,64.64798 -5.05078,152.53125 -25.75889,87.88328 -28.78986,73.74287 -34.3457,153.54492 -1.46575,21.05341 1.09848,45.08147 5.79297,71.22461 -5.43845,9.75037 -10.50722,20.20448 -14.88477,31.30468 -28.28427,71.72084 -68.68957,128.79388 -101.51953,164.6543 -32.82996,35.86041 -50.00289,47.98252 -93.43945,73.23633 l -43.43555,25.25391 c 0,0 39.39578,-9.08988 61.61914,-19.19141 22.22335,-10.10152 -22.22345,30.80873 -25.25391,68.68945 l -3.03124,37.8809 c 0,0 35.86067,-89.90445 70.71093,-120.20902 l 34.84961,-30.30469 c 0,0 -47.24828,64.43156 -57.57812,150.51371 l -2.27344,18.9394 -3.2832,40.6602 c 0,0 14.91187,-48.1287 35.10351,-79.04495 20.19164,-30.91629 97.69608,-111.87203 124.41406,-144.875 6.93182,-8.56243 27.44221,-43.24778 48.71289,-82.24609 8.44626,37.79556 15.77195,76.87554 18.54883,115.75195 8.5863,120.20819 36.36587,177.28179 -3.53515,211.62699 l -39.90039,34.3457 c 0,0 135.86564,-55.5587 139.90625,-165.16019 4.04061,-109.60155 4.04101,-110.10742 4.04101,-110.10742 0,0 7.57569,163.64471 -16.66797,219.20311 -10.3721,23.7694 -19.35152,38.1822 -26.23828,46.916 20.8956,-22.269 57.15766,-75.3355 61.08789,-178.2363 5.55584,-145.46197 -25.253,-244.45623 8.08203,-343.45117 33.33504,-98.99495 6.06007,-244.45729 -18.18359,-315.16797 C 631.85009,212.42018 600.53612,115.44592 541.94727,67.96875 491.59747,27.168057 430.80264,-12.887429 372.70703,-12.767578 Z M 605.10742,1119.9863 c -8.64272,9.2108 -14.67383,13.1875 -14.67383,13.1875 0,0 5.46354,-1.507 14.67383,-13.1875 z"
       id="path4283"
       inkscape:connector-curvature="0"
       sodipodi:nodetypes="sscsccscscscccscscscccccsssssscssscsscsssccscccccscscsscscscsssssscssccsccsccccsscsccscscsssssccc" />
    <path
       inkscape:export-ydpi="90"
       inkscape:export-xdpi="90"
       sodipodi:nodetypes="csccc"
       inkscape:connector-curvature="0"
       id="path4285"
       d="m 425,517.3622 c 0,0 24,-12 60,-49 l 36,-37 -8,24 c -21.65624,25.37347 -54.96452,49.96908 -88,62 z"
       style="display:inline;fill:#b3b3b3;fill-opacity:1;fill-rule:evenodd;stroke:none;stroke-width:1px;stroke-linecap:butt;stroke-linejoin:miter;stroke-opacity:1" />
  </g>
</svg>
